# xmcd
#
# Track frame offsets:
# 150
# 13703
# 26039
# 37502
# 49916
# 62338
# 74350
# 86030
# 99417
# 111300
# 122433
# 134154
# 146588
# 159511
# 169590
# 173805
# 184999
# 197770
# 209053
# 219996
# 232024
# 243732
# 254911
# 267904
# 278820
#
# Disc length: 3864 seconds
#
# Revision: 2
# Processed by: cddbd v1.4PL0 Copyright (c) Steve Scherf et al.
# Submitted via: Axialis_AX_CDPlayer 2.6
#
DISCID=7b0f1619
DTITLE=Gene Phillips - Swinging the Blues
DYEAR=1900
DGENRE=Blues
TTITLE0=Big Legs
TTITLE1=It's Raining
TTITLE2=Honey Chile
TTITLE3=Big Fat Mama
TTITLE4=Snuff Dipping Mama
TTITLE5=To Each His Own, Brother
TTITLE6=Punkin' Head Woman
TTITLE7=My Mama Told Me
TTITLE8=My Baby's Mistreatin' Me
TTITLE9=Slippin' and Slidin'
TTITLE10=See See Rider
TTITLE11=I Wonder What the Poor Folks are Doin'
TTITLE12=Honky Tonk Train
TTITLE13=How Long Blues
TTITLE14=Happy Birthday (Jules Binari)
TTITLE15=Fatso
TTITLE16=Gene's Guitar Blues (Inst)
TTITLE17=Broke and Disgusted (aka It's a Lonely World)
TTITLE18=Jumpin' with Lloyd (Inst)
TTITLE19=Cherry Red
TTITLE20=Gene Jumps the Blues
TTITLE21=Short Haired Ugly Woman
TTITLE22=Ramblin' Woman
TTITLE23=Crying Won't Help You None
TTITLE24=Flying Home (Inst)
EXTD=
EXTT0=
EXTT1=
EXTT2=
EXTT3=
EXTT4=
EXTT5=
EXTT6=
EXTT7=
EXTT8=
EXTT9=
EXTT10=
EXTT11=
EXTT12=
EXTT13=
EXTT14=
EXTT15=
EXTT16=
EXTT17=
EXTT18=
EXTT19=
EXTT20=
EXTT21=
EXTT22=
EXTT23=
EXTT24=
PLAYORDER=
